<?xml version="1.0" encoding="UTF-8" standalone="no"?>
<!DOCTYPE svg PUBLIC "-//W3C//DTD SVG 1.1//EN" "http://www.w3.org/Graphics/SVG/1.1/DTD/svg11.dtd">
<svg width="100%" height="100%" viewBox="0 0 3505 848" version="1.1" xmlns="http://www.w3.org/2000/svg" xmlns:xlink="http://www.w3.org/1999/xlink" xml:space="preserve" xmlns:serif="http://www.serif.com/" style="fill-rule:evenodd;clip-rule:evenodd;stroke-linejoin:round;stroke-miterlimit:2;">
    <g transform="matrix(1,0,0,1,-2247.50625,-1826.228333)">
        <g>
            <g transform="matrix(4.166667,0,0,4.166667,0,549.249167)">
                <path d="M1261.703,448.92L1225.243,488.553C1218.965,495.377 1210.117,499.26 1200.845,499.26L1146.999,499.26C1145.38,499.26 1144.535,497.334 1145.631,496.142L1186.788,451.403C1188.244,449.821 1190.297,448.92 1192.447,448.92L1261.703,448.92Z" style="fill:rgb(127,0,223);fill-rule:nonzero;"/>
            </g>
            <g transform="matrix(4.166667,0,0,4.166667,0,-209.785)">
                <path d="M1274.947,552.604L1347.137,631.084L1274.497,631.084L1245.758,599.842C1237.861,591.257 1237.861,578.052 1245.759,569.468L1300.497,509.974C1306.767,503.154 1315.617,499.264 1324.887,499.264L1378.737,499.264C1380.357,499.264 1381.197,501.194 1380.107,502.384L1338.947,547.114C1337.487,548.694 1335.437,549.594 1333.287,549.594L1276.267,549.594C1274.697,549.594 1273.887,551.454 1274.947,552.604" style="fill:rgb(127,0,223);fill-rule:nonzero;"/>
            </g>
            <g transform="matrix(4.166667,0,0,4.166667,0,-447.706667)">
                <path d="M1243.025,608.185L1221.964,631.08L1156.102,559.488C1155.005,558.296 1155.851,556.37 1157.47,556.37L1222.489,556.37C1224.639,556.37 1226.691,557.27 1228.148,558.852L1243.024,575.017C1251.649,584.39 1251.649,598.81 1243.025,608.185" style="fill:rgb(127,0,223);fill-rule:nonzero;"/>
            </g>
            <g transform="matrix(4.166667,0,0,4.166667,0,-194.751667)">
                <path d="M658.891,511.755C654.011,503.555 646.901,497.055 637.551,492.245C628.212,487.435 617.101,485.035 604.231,485.035L539.401,485.035L539.401,505.734C539.401,508.667 541.78,511.045 544.712,511.045L601.792,511.045C612.082,511.045 620.111,513.555 625.871,518.565C631.631,523.575 634.511,530.285 634.511,538.675C634.511,548.165 632.001,555.925 626.991,561.945C621.971,567.975 613.572,570.985 601.792,570.985L571.101,570.985L571.101,521.242L539.401,521.242L539.401,641.705L571.101,641.705L571.101,597.205L604.841,597.205C627.051,597.205 642.841,591.785 652.182,580.945C661.531,570.115 666.212,556.025 666.212,538.675C666.212,528.925 663.772,519.955 658.891,511.755" style="fill:rgb(0,0,81);fill-rule:nonzero;"/>
            </g>
            <g transform="matrix(4.166667,0,0,4.166667,0,-55.896667)">
                <path d="M724.536,519.071C718.846,525.777 716.001,534.957 716.001,546.606C716.001,557.309 718.913,566.082 724.739,572.922C730.563,579.764 738.218,583.184 747.702,583.184C757.589,583.184 765.549,579.831 771.579,573.125C777.606,566.419 780.622,557.446 780.622,546.2C780.622,534.82 777.64,525.777 771.681,519.071C765.718,512.365 757.793,509.012 747.905,509.012C738.014,509.012 730.226,512.365 724.536,519.071M765.889,605.13C759.317,608.382 752.375,610.008 745.06,610.008C733.137,610.008 722.571,607.131 713.359,601.371C704.145,595.615 697.033,587.858 692.023,578.104C687.008,568.349 684.503,557.783 684.503,546.403C684.503,533.94 687.145,522.932 692.428,513.381C697.712,503.83 705.028,496.448 714.375,491.231C723.723,486.018 734.423,483.407 746.483,483.407C754.068,483.407 761.18,485.068 767.82,488.386C774.456,491.707 778.723,495.67 780.622,500.274L780.622,490.128C780.622,487.427 782.812,485.237 785.514,485.237L810.291,485.237L810.291,608.382L779.606,608.382L779.606,593.141C777.031,597.885 772.458,601.879 765.889,605.13" style="fill:rgb(0,0,81);fill-rule:nonzero;"/>
            </g>
            <g transform="matrix(4.166667,0,0,4.166667,0,131.2275)">
                <path d="M868.619,474.568C862.928,481.274 860.084,490.453 860.084,502.103C860.084,512.67 862.959,521.408 868.72,528.318C874.476,535.227 882.03,538.681 891.379,538.681C901.401,538.681 909.463,535.363 915.56,528.724C921.656,522.087 924.705,513.076 924.705,501.697C924.705,490.317 921.722,481.274 915.764,474.568C909.8,467.862 901.875,464.509 891.987,464.509C882.096,464.509 874.308,467.862 868.619,474.568M911.902,443.883C918.538,447.204 922.805,451.167 924.705,455.771L924.705,443.186C924.705,440.485 926.894,438.295 929.596,438.295L954.374,438.295L954.374,558.596C953.967,569.026 951.121,578.136 945.838,585.927C940.555,593.716 933.271,599.711 923.994,603.912C914.712,608.109 904.043,610.211 891.987,610.211C880.741,610.211 870.752,608.211 862.014,604.216C853.276,600.219 846.468,594.9 841.591,588.264C836.715,581.625 834.207,574.446 834.072,566.724L863.944,566.724C865.298,572.278 868.177,576.646 872.582,579.831C876.981,583.013 883.587,584.607 892.394,584.607C902.282,584.607 909.936,582.301 915.356,577.697C920.774,573.09 923.551,566.318 923.689,557.376L923.689,548.638C921.114,553.382 916.404,557.376 909.565,560.627C902.722,563.879 895.576,565.505 888.126,565.505C876.474,565.505 866.111,562.593 857.035,556.766C847.957,550.943 840.946,543.152 836.002,533.397C831.056,523.644 828.586,513.146 828.586,501.9C828.586,489.437 831.227,478.429 836.51,468.878C841.795,459.327 849.111,451.945 858.457,446.728C867.805,441.515 878.505,438.904 890.565,438.904C898.15,438.904 905.262,440.565 911.902,443.883" style="fill:rgb(0,0,81);fill-rule:nonzero;"/>
            </g>
            <g transform="matrix(4.166667,0,0,4.166667,0,-57.586667)">
                <path d="M1061.268,574.343C1066.279,567.098 1068.787,557.984 1068.787,547.011C1068.787,536.444 1066.247,527.401 1061.167,519.883C1056.086,512.364 1047.72,508.605 1036.07,508.605C1024.148,508.605 1015.714,512.231 1010.77,519.476C1005.824,526.725 1003.353,535.904 1003.353,547.011C1003.353,557.308 1005.792,566.25 1010.669,573.835C1015.546,581.424 1024.011,585.215 1036.07,585.215C1047.856,585.215 1056.255,581.592 1061.268,574.343M1001.016,601.98C991.466,596.36 984.353,588.771 979.679,579.221C975.006,569.669 972.668,558.934 972.668,547.011C972.668,534.686 975.037,523.744 979.781,514.193C984.521,504.642 991.669,497.123 1001.219,491.637C1010.77,486.15 1022.385,483.407 1036.07,483.407C1049.888,483.407 1061.573,486.219 1071.124,491.84C1080.675,497.463 1087.787,505.083 1092.461,514.701C1097.135,524.322 1099.472,535.092 1099.472,547.011C1099.472,559.477 1096.999,570.482 1092.055,580.033C1087.108,589.584 1079.894,597.036 1070.413,602.386C1060.929,607.74 1049.482,610.413 1036.07,610.413C1022.252,610.413 1010.567,607.603 1001.016,601.98" style="fill:rgb(0,0,81);fill-rule:nonzero;"/>
            </g>
            <g transform="matrix(4.166667,0,0,4.166667,0,629.39)">
                <path d="M1274.497,449.319L1297.416,449.319L1297.416,454.429L1280.63,454.429L1280.63,461.034L1296.512,461.034L1296.512,466.105L1280.63,466.105L1280.63,474.518L1297.416,474.518L1297.416,479.628L1274.497,479.628L1274.497,449.319Z" style="fill:rgb(0,0,81);fill-rule:nonzero;"/>
            </g>
            <g transform="matrix(4.166667,0,0,4.166667,0,683.118333)">
                <path d="M1306.772,449.416C1305.671,450.713 1305.121,452.489 1305.121,454.743C1305.121,456.813 1305.684,458.51 1306.811,459.834C1307.938,461.157 1309.419,461.819 1311.254,461.819C1313.166,461.819 1314.706,461.17 1315.873,459.873C1317.038,458.576 1317.622,456.84 1317.622,454.664C1317.622,452.463 1317.045,450.713 1315.892,449.416C1314.739,448.119 1313.206,447.47 1311.293,447.47C1309.379,447.47 1307.873,448.119 1306.772,449.416M1315.145,443.48C1316.429,444.122 1317.255,444.889 1317.622,445.78L1317.622,442.91L1323.362,442.91L1323.362,473.534L1317.425,473.534L1317.425,463.745C1316.927,464.663 1316.043,465.435 1314.772,466.064C1313.5,466.693 1312.158,467.008 1310.742,467.008C1308.436,467.008 1306.392,466.452 1304.61,465.337C1302.827,464.224 1301.451,462.723 1300.482,460.836C1299.512,458.949 1299.027,456.905 1299.027,454.703C1299.027,452.293 1299.539,450.163 1300.561,448.315C1301.583,446.468 1302.998,445.04 1304.806,444.03C1306.615,443.022 1308.685,442.517 1311.018,442.517C1312.485,442.517 1313.861,442.838 1315.145,443.48" style="fill:rgb(0,0,81);fill-rule:nonzero;"/>
            </g>
            <g transform="matrix(4.166667,0,0,4.166667,0,656.416667)">
                <path d="M1348.206,473.142L1342.27,473.142L1342.27,470.351C1341.929,471.111 1341.123,471.766 1339.852,472.315C1338.581,472.867 1337.185,473.142 1335.666,473.142C1334.04,473.142 1332.521,472.782 1331.105,472.061C1329.69,471.341 1328.53,470.154 1327.626,468.503C1326.722,466.852 1326.27,464.703 1326.27,462.056L1326.27,449.319L1332.206,449.319L1332.206,461.82C1332.206,463.314 1332.324,464.507 1332.56,465.398C1332.796,466.289 1333.254,466.97 1333.936,467.442C1334.617,467.914 1335.6,468.149 1336.884,468.149C1338.482,468.149 1339.675,467.835 1340.462,467.206C1341.248,466.577 1341.745,465.726 1341.955,464.651C1342.165,463.576 1342.27,462.109 1342.27,460.248L1342.27,449.319L1348.206,449.319L1348.206,473.142Z" style="fill:rgb(0,0,81);fill-rule:nonzero;"/>
            </g>
            <g transform="matrix(4.166667,0,0,4.166667,0,626.445833)">
                <path d="M1351.311,456.512L1357.247,456.512L1357.247,480.335L1351.311,480.335L1351.311,456.512ZM1351.921,454.998C1351.278,454.356 1350.958,453.563 1350.958,452.62C1350.958,451.703 1351.278,450.923 1351.921,450.281C1352.563,449.639 1353.356,449.318 1354.299,449.318C1355.216,449.318 1355.996,449.639 1356.638,450.281C1357.28,450.923 1357.601,451.703 1357.601,452.62C1357.601,453.563 1357.28,454.356 1356.638,454.998C1355.996,455.641 1355.216,455.961 1354.299,455.961C1353.356,455.961 1352.563,455.641 1351.921,454.998" style="fill:rgb(0,0,81);fill-rule:nonzero;"/>
            </g>
            <g transform="matrix(4.166667,0,0,4.166667,0,656.584167)">
                <path d="M1372.795,454.448C1372.1,454.015 1371.15,453.799 1369.945,453.799C1368.713,453.799 1367.743,454.029 1367.036,454.487C1366.328,454.946 1365.974,455.503 1365.974,456.158C1365.974,456.63 1366.177,457.017 1366.584,457.318C1366.99,457.619 1367.651,457.836 1368.569,457.966L1372.893,458.517C1375.356,458.831 1377.257,459.533 1378.593,460.62C1379.93,461.708 1380.598,463.444 1380.598,465.829C1380.598,467.401 1380.159,468.764 1379.281,469.917C1378.403,471.071 1377.198,471.955 1375.665,472.571C1374.132,473.186 1372.408,473.495 1370.495,473.495C1368.608,473.495 1366.904,473.193 1365.385,472.59C1363.864,471.988 1362.659,471.13 1361.768,470.015C1360.877,468.902 1360.418,467.585 1360.392,466.065L1366.328,466.065C1366.328,466.851 1366.682,467.46 1367.39,467.893C1368.097,468.325 1369.132,468.541 1370.495,468.541C1371.858,468.541 1372.893,468.319 1373.601,467.873C1374.308,467.428 1374.662,466.812 1374.662,466.025C1374.662,465.423 1374.407,464.872 1373.896,464.374C1373.385,463.877 1372.71,463.575 1371.871,463.47L1367.625,462.92C1362.567,462.265 1360.038,460.103 1360.038,456.433C1360.038,455.071 1360.457,453.819 1361.296,452.679C1362.135,451.539 1363.301,450.629 1364.795,449.947C1366.289,449.266 1368.005,448.925 1369.945,448.925C1371.805,448.925 1373.476,449.246 1374.957,449.888C1376.437,450.53 1377.604,451.388 1378.456,452.463C1379.307,453.538 1379.773,454.73 1379.851,456.04L1373.915,456.04C1373.863,455.411 1373.489,454.881 1372.795,454.448" style="fill:rgb(0,0,81);fill-rule:nonzero;"/>
            </g>
        </g>
    </g>
</svg>
