<svg width="169" height="36" viewBox="0 0 169 36" fill="none" xmlns="http://www.w3.org/2000/svg">
<path d="M156.599 11.4154C157.083 11.4154 157.498 11.5797 157.844 11.9083C158.19 12.2196 158.372 12.6174 158.389 13.1017V15.3588H167.21C167.694 15.3588 168.109 15.5232 168.455 15.8518C168.784 16.1977 168.948 16.6128 168.948 17.0971C168.948 17.5814 168.775 17.9965 168.429 18.3424C168.101 18.671 167.694 18.8353 167.21 18.8353H158.389V19.3542C158.372 20.0634 158.415 20.7206 158.519 21.326C158.64 21.914 158.916 22.4416 159.349 22.9085C159.781 23.3755 160.326 23.6263 160.983 23.6609H167.314C167.798 23.6782 168.196 23.8598 168.507 24.2057C168.836 24.5517 169 24.9668 169 25.4511C168.983 25.918 168.81 26.3159 168.481 26.6445C168.17 26.9558 167.781 27.1201 167.314 27.1374H160.101C158.891 27.0682 157.887 26.6618 157.092 25.918C156.313 25.157 155.751 24.2317 155.405 23.142C155.077 22.0524 154.904 20.8936 154.886 19.6655V18.8353H151.903C151.419 18.8353 151.012 18.6624 150.684 18.3165C150.338 17.9878 150.165 17.5814 150.165 17.0971C150.165 16.6128 150.329 16.2063 150.658 15.8777C151.004 15.5318 151.419 15.3588 151.903 15.3588H154.886V13.1017C154.904 12.6347 155.077 12.2456 155.405 11.9342C155.734 11.6056 156.132 11.4327 156.599 11.4154Z" fill="white"/>
<path d="M137.512 27.5785C136.613 27.5785 135.722 27.4747 134.84 27.2671C133.975 27.0596 133.145 26.7569 132.349 26.3591C131.554 25.944 130.853 25.3992 130.248 24.7246C129.643 24.0501 129.314 23.2458 129.262 22.3118V21.2222V16.7858C129.262 16.3015 129.435 15.9037 129.781 15.5923C130.144 15.2637 130.568 15.0994 131.052 15.0994C132.09 15.1859 132.652 15.748 132.739 16.7858V17.9273V21.5076C132.773 22.0437 132.972 22.4934 133.335 22.8567C133.716 23.2026 134.131 23.4793 134.581 23.6869C135.048 23.8944 135.523 24.0501 136.008 24.1539C136.509 24.2576 137.011 24.3095 137.512 24.3095C138.014 24.3095 138.507 24.2576 138.991 24.1539C139.493 24.0501 139.968 23.8944 140.418 23.6869C140.885 23.4793 141.3 23.2026 141.663 22.8567C142.044 22.4934 142.251 22.0437 142.286 21.5076V17.9273V16.7858C142.286 16.3015 142.459 15.9037 142.805 15.5923C143.168 15.2637 143.592 15.0994 144.076 15.0994C145.114 15.1859 145.685 15.748 145.788 16.7858V21.2222V22.3118C145.737 23.2458 145.399 24.0501 144.777 24.7246C144.171 25.3992 143.471 25.944 142.675 26.3591C141.88 26.7569 141.041 27.0596 140.159 27.2671C139.294 27.4747 138.412 27.5785 137.512 27.5785Z" fill="white"/>
<path d="M113.756 23.1161C113.756 22.6318 113.92 22.2254 114.249 21.8967C114.595 21.5508 115.01 21.3779 115.494 21.3779H119.464L118.789 19.458C118.512 18.7489 118.236 18.083 117.959 17.4603C117.699 16.8204 117.397 16.2409 117.051 15.7221C116.739 15.2032 116.385 14.9264 115.987 14.8919C115.572 14.9264 115.2 15.2032 114.871 15.7221C114.543 16.2409 114.24 16.8204 113.963 17.4603C113.704 18.083 113.436 18.7489 113.159 19.458L110.694 26.2034C110.522 26.5666 110.297 26.8693 110.02 27.1115C109.76 27.3363 109.363 27.4487 108.826 27.4487C108.325 27.4487 107.91 27.2758 107.581 26.9299C107.27 26.5839 107.131 26.1688 107.166 25.6846C107.183 25.4597 107.235 25.2522 107.322 25.0619L110.176 17.6938C110.971 15.7567 111.767 14.1914 112.562 12.9979C113.341 11.8218 114.482 11.2251 115.987 11.2078C117.474 11.2251 118.607 11.8218 119.386 12.9979C120.181 14.1568 120.977 15.7221 121.773 17.6938L124.626 25.0619C124.713 25.2522 124.765 25.4597 124.782 25.6846C124.817 26.1688 124.67 26.5839 124.341 26.9299C124.03 27.2758 123.623 27.4487 123.122 27.4487C122.551 27.4487 122.127 27.3363 121.85 27.1115C121.591 26.8693 121.375 26.5666 121.202 26.2034L120.709 24.8543H115.494C115.01 24.8543 114.603 24.6814 114.275 24.3355C113.929 24.0068 113.756 23.6004 113.756 23.1161Z" fill="white"/>
<path d="M87.8462 15.0475C88.3305 15.0475 88.7456 15.2118 89.0915 15.5405C89.4374 15.8518 89.6191 16.2496 89.6363 16.7339V19.3542C89.6191 20.0634 89.6623 20.7206 89.7661 21.326C89.8871 21.914 90.1639 22.4416 90.5963 22.9085C91.0287 23.3755 91.5735 23.6263 92.2307 23.6609H99.1578V16.7858C99.1578 16.3015 99.3308 15.9037 99.6767 15.5923C100.04 15.2637 100.464 15.0994 100.948 15.0994C101.986 15.1859 102.556 15.748 102.66 16.7858V25.2435C102.66 26.6272 102.47 27.933 102.089 29.161C101.744 30.2507 101.173 31.1674 100.377 31.9111C99.5988 32.6721 98.6043 33.0872 97.3936 33.1564H88.417C87.95 33.1391 87.5522 32.9662 87.2236 32.6375C86.9122 32.3262 86.7479 31.9371 86.7306 31.4701C86.7306 30.9858 86.8863 30.5707 87.1976 30.2248C87.5262 29.8788 87.9327 29.6972 88.417 29.6799H96.5115C97.1688 29.6453 97.7136 29.3945 98.146 28.9276C98.5784 28.4606 98.8551 27.9157 98.9762 27.2931C98.9935 27.2412 99.0021 27.1893 99.0021 27.1374H91.3487C90.1379 27.0682 89.1348 26.6618 88.3392 25.918C87.5608 25.157 86.9987 24.2317 86.6528 23.142C86.3242 22.0524 86.1512 20.8936 86.1339 19.6655V16.7339C86.1512 16.2669 86.3242 15.8777 86.6528 15.5664C86.9814 15.2378 87.3792 15.0648 87.8462 15.0475Z" fill="white"/>
<path d="M77.399 25.7624V19.5099C77.399 19.0775 77.1742 18.8526 76.7245 18.8353H67.6441C67.3155 18.8526 67.0301 18.9997 66.788 19.2764C66.5458 19.5358 66.3642 19.8472 66.2431 20.2104C66.1394 20.5563 66.0875 20.9109 66.0875 21.2741C66.0875 21.62 66.1394 21.9746 66.2431 22.3378C66.3642 22.6837 66.5458 22.995 66.788 23.2718C67.0301 23.5312 67.3155 23.6609 67.6441 23.6609H74.2858C74.7701 23.6609 75.1765 23.8339 75.5051 24.1798C75.8511 24.5084 76.024 24.9149 76.024 25.3992C76.024 25.8835 75.8511 26.2899 75.5051 26.6185C75.1765 26.9645 74.7701 27.1374 74.2858 27.1374H67.7479C66.5372 27.1201 65.534 26.7828 64.7384 26.1256C63.9601 25.4511 63.3979 24.6987 63.052 23.8685C62.7234 23.021 62.5591 22.1475 62.5591 21.2481C62.5591 20.3833 62.732 19.5358 63.078 18.7056C63.4239 17.8581 63.986 17.1057 64.7643 16.4485C65.5426 15.7739 66.6928 15.4107 68.2149 15.3588H79.1113C79.5956 15.3588 80.0107 15.5232 80.3567 15.8518C80.7026 16.1631 80.8842 16.5609 80.9015 17.0452V25.7624C80.9015 26.2467 80.7199 26.6531 80.3567 26.9818C80.0107 27.2931 79.5956 27.4487 79.1113 27.4487C78.0736 27.3623 77.5028 26.8001 77.399 25.7624Z" fill="white"/>
<path d="M43.4467 25.7624C43.3429 26.8001 42.7721 27.3623 41.7343 27.4487C41.2501 27.4487 40.8263 27.2931 40.4631 26.9818C40.1172 26.6531 39.9442 26.2467 39.9442 25.7624V13.5168C39.9615 13.0325 40.1431 12.6347 40.489 12.3234C40.835 11.9948 41.2501 11.8305 41.7343 11.8305H52.6308C54.1529 11.8823 55.3031 12.2196 56.0814 12.8423C56.8597 13.4476 57.4218 14.1395 57.7677 14.9178C58.1137 15.6961 58.2866 16.4831 58.2866 17.2787C58.2866 18.1089 58.1137 18.9132 57.7677 19.6915C57.4391 20.4698 56.877 21.1703 56.0814 21.793C55.3031 22.3983 54.3085 22.6923 53.0978 22.675H46.5599C46.0756 22.675 45.6692 22.5021 45.3406 22.1562C44.9946 21.8275 44.8217 21.4211 44.8217 20.9368C44.8217 20.4525 44.986 20.0461 45.3146 19.7174C45.6605 19.3715 46.0756 19.1986 46.5599 19.1986H53.2535C53.5821 19.1986 53.8502 19.0948 54.0577 18.8872C54.2826 18.6624 54.4469 18.4116 54.5507 18.1348C54.6545 17.8408 54.7063 17.5468 54.7063 17.2528C54.7063 16.976 54.6545 16.6993 54.5507 16.4225C54.4469 16.1285 54.2826 15.8777 54.0577 15.6702C53.8502 15.4453 53.5821 15.3243 53.2535 15.307H44.1212C43.6715 15.3243 43.4467 15.5491 43.4467 15.9815V25.7624Z" fill="white"/>
<path d="M6.8586 11.9918L0 23.5522L6.8586 35.4577L13.6309 23.5522L6.8586 11.9918Z" fill="white"/>
<path d="M27.1324 23.5522H13.976L20.2738 12.2075H6.98798L0.258789 7.62939e-06H27.1324L33.991 12.2075L27.1324 23.5522Z" fill="white"/>
</svg>
